  <svg
    width="28"
    height="29"
    viewBox="0 0 28 29"
    fill="none"
    xmlns="http://www.w3.org/2000/svg"
  >
    <g clip-path="url(#clip0_8_2007)">
      <path
        d="M26.8993 9.05054C26.1943 7.38345 25.1853 5.88595 23.9001 4.60038C22.614 3.31518 21.1162 2.30562 19.4499 1.60068C17.7239 0.870525 15.8901 0.500061 14 0.500061C12.1102 0.500061 10.2766 0.87047 8.55048 1.60068C6.88339 2.30562 5.38589 3.31524 4.10026 4.60038C2.81512 5.88595 1.80556 7.38345 1.10056 9.05054C0.370464 10.7766 0 12.6104 0 14.5C0 16.3901 0.370409 18.2239 1.10062 19.9499C1.80556 21.6162 2.81518 23.1141 4.10032 24.3993C5.38589 25.6853 6.88339 26.6944 8.55053 27.3993C10.2766 28.1291 12.1103 28.5 14 28.5C15.8901 28.5 17.7239 28.1291 19.4499 27.3993C21.1162 26.6943 22.6141 25.6853 23.9001 24.3993C25.1853 23.1141 26.1944 21.6162 26.8994 19.9499C27.6292 18.2239 28 16.3901 28 14.5C27.9999 12.6104 27.6291 10.7766 26.8993 9.05054Z"
        fill="#ED5564"
      />
      <path
        d="M0.0055542 14.8931C0.0534072 16.6439 0.420809 18.3435 1.10059 19.9499C1.80554 21.6162 2.81515 23.114 4.10029 24.3992C5.38587 25.6853 6.88337 26.6944 8.55051 27.3993C10.2766 28.1291 12.1103 28.4999 14 28.4999C15.8901 28.4999 17.7239 28.1291 19.4499 27.3993C21.1162 26.6943 22.614 25.6853 23.9001 24.3992C25.1853 23.114 26.1944 21.6162 26.8994 19.9499C27.5796 18.3435 27.947 16.6439 27.9948 14.8931H0.0055542Z"
        fill="#E6E9ED"
      />
      <path
        d="M27.9333 15.8792C27.9777 15.4229 27.9999 14.9631 27.9999 14.5C27.9999 13.9796 27.9717 13.4635 27.9162 12.9529C27.2206 13.0602 26.2217 13.1999 24.9631 13.3387C22.5739 13.6023 18.7338 13.9168 14 13.9168C9.26652 13.9168 5.42603 13.6023 3.03727 13.3387C1.77822 13.1999 0.779703 13.0602 0.0841665 12.9529C0.0282196 13.4635 0 13.9797 0 14.5C0 14.9631 0.0222038 15.4229 0.066666 15.8792C2.3379 16.221 7.34179 16.8328 14 16.8328C20.6582 16.8328 25.662 16.221 27.9333 15.8792Z"
        fill="#434A54"
      />
      <path
        d="M16.9172 15.0832C16.9172 16.6943 15.6106 18 14 18C12.3893 18 11.0832 16.6943 11.0832 15.0832C11.0832 13.4724 12.3893 12.1668 14 12.1668C15.6106 12.1668 16.9172 13.4725 16.9172 15.0832Z"
        fill="#E6E9ED"
      />
      <path
        d="M14 9.83325C11.105 9.83325 8.75 12.1887 8.75 15.0832C8.75 17.9778 11.105 20.3327 14 20.3327C16.895 20.3327 19.2499 17.9778 19.2499 15.0832C19.2499 12.1887 16.895 9.83325 14 9.83325ZM14 17.4173C12.7136 17.4173 11.6668 16.3696 11.6668 15.0832C11.6668 13.7968 12.7135 12.75 14 12.75C15.2869 12.75 16.3327 13.7968 16.3327 15.0832C16.3327 16.3696 15.2869 17.4173 14 17.4173Z"
        fill="#434A54"
      />
      <path
        opacity="0.2"
        d="M26.8993 9.05054C26.1943 7.38345 25.1852 5.88595 23.9 4.60038C22.614 3.31518 21.1162 2.30562 19.4498 1.60068C17.7238 0.870525 15.8901 0.500061 14 0.500061C13.8047 0.500061 13.6103 0.504327 13.4167 0.512038C15.1006 0.580399 16.7343 0.945723 18.2827 1.60068C19.9506 2.30562 21.4477 3.31524 22.7328 4.60038C24.018 5.88595 25.028 7.38345 25.7328 9.05054C26.4634 10.7766 26.8326 12.6104 26.8326 14.5001C26.8326 16.3901 26.4634 18.2239 25.7328 19.95C25.028 21.6163 24.018 23.1141 22.7328 24.3993C21.4477 25.6854 19.9506 26.6944 18.2827 27.3994C16.7343 28.054 15.1005 28.4197 13.4167 28.488C13.6103 28.4957 13.8047 28.5 14 28.5C15.8901 28.5 17.7238 28.1292 19.4498 27.3994C21.1162 26.6944 22.614 25.6853 23.9 24.3993C25.1852 23.1141 26.1943 21.6162 26.8993 19.95C27.6291 18.2239 27.9999 16.3901 27.9999 14.5001C27.9999 12.6104 27.6291 10.7766 26.8993 9.05054Z"
        fill="white"
      />
      <path
        opacity="0.1"
        d="M1.10062 19.9499C1.80556 21.6162 2.81518 23.1141 4.10032 24.3993C5.38589 25.6853 6.88339 26.6944 8.55053 27.3993C10.2766 28.1291 12.1103 28.5 14 28.5C14.1953 28.5 14.3897 28.4957 14.5832 28.488C12.8994 28.4196 11.2652 28.0539 9.71689 27.3993C8.0498 26.6943 6.55274 25.6853 5.26716 24.3993C3.98158 23.1141 2.97241 21.6162 2.26703 19.9499C1.53682 18.2239 1.16685 16.3901 1.16685 14.5C1.16685 12.6103 1.53682 10.7766 2.26697 9.05048C2.97235 7.3834 3.98153 5.88584 5.26711 4.60076C6.55268 3.31518 8.04974 2.30557 9.71683 1.60062C11.2652 0.945668 12.8994 0.580345 14.5832 0.511983C14.3896 0.504327 14.1952 0.500061 14 0.500061C12.1102 0.500061 10.2766 0.87047 8.55048 1.60068C6.88339 2.30562 5.38589 3.31524 4.10026 4.60081C2.81512 5.88595 1.80556 7.38345 1.10056 9.05054C0.370464 10.7766 0 12.6104 0 14.5C0 16.3901 0.370464 18.2239 1.10062 19.9499Z"
        fill="black"
      />
    </g>
    <defs>
      <clipPath id="clip0_8_2007">
        <rect
          width="28"
          height="28"
          fill="white"
          transform="translate(0 0.5)"
        />
      </clipPath>
    </defs>
  </svg>